<?xml version="1.0" encoding="utf-8"?>
<!-- Generator: Adobe Illustrator 21.0.0, SVG Export Plug-In . SVG Version: 6.00 Build 0)  -->
<svg version="1.1" id="Layer_1" xmlns="http://www.w3.org/2000/svg" xmlns:xlink="http://www.w3.org/1999/xlink" x="0px" y="0px"
	 viewBox="0 0 512 512" style="enable-background:new 0 0 512 512;" xml:space="preserve">
<g>
	<path d="M256,73.1c-48.4,0-90.5,22.6-120.6,56c-2.5-0.3-4.7-1.1-7.4-1.1c-40.2,0-73.1,32.9-73.1,73.1C23.2,220.4,0,253,0,292.6
		c0,60.4,49.4,109.7,109.7,109.7h91.4v-36.6h-91.4c-40.6,0-73.1-32.6-73.1-73.1c0-30.4,18.4-56.3,44.6-67.4l12.6-5.1L92,206.3
		c-0.4-3-0.6-4.7-0.6-5.1c0-20.4,16.1-36.6,36.6-36.6c2.6,0,5.4,0.4,8.6,1.1l11.4,2.9l6.9-9.1c23.4-30.1,60-49.7,101.1-49.7
		c59.9,0,109.9,41.2,124,96.6l3.4,14.3l15.4-0.6c3.9-0.2,4.7-0.6,3.4-0.6c40.6,0,73.1,32.6,73.1,73.1s-32.6,73.1-73.1,73.1h-91.4
		v36.6h91.4c60.4,0,109.7-49.4,109.7-109.7c0-57.7-45.5-103.9-102.3-108C387.4,120.2,327.8,73.1,256,73.1z M256,219.4l-73.1,73.1
		h54.9v146.3h36.6V292.6h54.9L256,219.4z"/>
</g>
</svg>
